<svg width="1070" height="210" viewBox="0 0 1070 210" fill="none" xmlns="http://www.w3.org/2000/svg">
<path d="M200 105C200 160.228 155.228 205 100 205C44.7715 205 0 160.228 0 105C0 49.7715 44.7715 5 100 5C155.228 5 200 49.7715 200 105Z" fill="white" fill-opacity="0.07"/>
<path fill-rule="evenodd" clip-rule="evenodd" d="M1070 145.124C1056.38 155.118 1039.82 160.979 1021.97 160.979C975.519 160.979 937.867 121.339 937.867 72.441C937.867 42.4959 951.987 16.0232 973.6 0C920.432 2.30529 878 48.4131 878 104.955C878 162.97 922.672 210 977.778 210C1019.37 210 1055.02 183.209 1070 145.124Z" fill="white" fill-opacity="0.07"/>
<path d="M620.631 80.006C621.155 77.084 621.428 74.069 621.428 70.986C621.428 44.4841 601.211 23 576.271 23C561.012 23 547.52 31.043 539.347 43.3575C531.499 36.3566 521.378 32.1402 510.33 32.1402C485.63 32.1402 465.562 53.2136 465.179 79.364H465.173C437.463 79.364 415 103.235 415 132.682C415 162.129 437.463 186 465.173 186H612.827C640.537 186 663 162.129 663 132.682C663 106.056 644.635 83.99 620.631 80.006Z" fill="white" fill-opacity="0.07"/>
</svg>
