<svg width="333" height="249" viewBox="0 0 333 249" fill="none" xmlns="http://www.w3.org/2000/svg">
<g clip-path="url(#clip0_216_14)">
<path d="M43.6119 219.84C44.3688 219.885 45.1369 219.996 45.9161 220.174C46.6952 220.352 47.3965 220.686 48.0199 221.176C48.6432 221.666 48.9549 222.356 48.9549 223.247C48.9549 223.692 48.877 224.159 48.7211 224.649C48.5653 225.139 48.3538 225.495 48.0866 225.718C47.7304 226.074 47.2741 226.33 46.7175 226.486C46.161 226.642 45.6155 226.753 45.0812 226.82C44.5469 226.886 44.0906 226.92 43.7121 226.92C43.3336 226.92 43.1221 226.92 43.0776 226.92L7.48014 226.987C6.45608 227.031 5.39862 227.031 4.30776 226.987C3.21691 226.942 2.29302 226.608 1.5361 225.985C0.512034 225.228 0 224.404 0 223.514C0 222.89 0.211492 222.256 0.634476 221.61C1.05746 220.965 1.62515 220.531 2.33755 220.308C3.27256 219.996 4.22984 219.852 5.20939 219.874C6.18893 219.896 7.19073 219.885 8.2148 219.84C9.28339 219.796 10.2073 219.774 10.9865 219.774C11.7656 219.774 12.5226 219.774 13.2572 219.774C13.9919 219.774 14.7599 219.785 15.5614 219.807C16.3628 219.829 17.3201 219.84 18.4332 219.84V216.034C16.5632 215.989 14.7711 215.956 13.0569 215.933C11.3427 215.911 10.0626 215.878 9.21661 215.833C8.68231 215.833 8.05896 215.811 7.34657 215.766C6.63418 215.722 5.95517 215.611 5.30957 215.432C4.66396 215.254 4.08514 214.987 3.5731 214.631C3.06107 214.275 2.716 213.785 2.53791 213.162C2.40433 212.672 2.30415 212.293 2.23737 212.026C2.17058 211.759 2.10379 211.514 2.037 211.292C1.97022 211.069 1.92569 210.824 1.90343 210.557C1.88117 210.29 1.87004 209.889 1.87004 209.355V202.209C1.87004 202.253 1.8589 202.097 1.83664 201.741C1.81438 201.385 1.82551 200.951 1.87004 200.439C1.91456 199.927 2.01474 199.37 2.17058 198.769C2.32641 198.168 2.53791 197.645 2.80505 197.2C3.0722 196.754 3.50632 196.398 4.1074 196.131C4.70848 195.864 5.30957 195.663 5.91065 195.53C6.51173 195.396 7.05716 195.318 7.54693 195.296C8.0367 195.274 8.34838 195.263 8.48195 195.263H37.8682C38.8032 195.263 39.7717 195.263 40.7735 195.263C41.7753 195.263 42.7214 195.441 43.6119 195.797C44.3688 196.109 44.8809 196.621 45.148 197.333C45.4152 198.046 45.5265 198.802 45.482 199.604C45.3929 200.361 45.1146 201.006 44.6471 201.541C44.1796 202.075 43.5674 202.453 42.8105 202.676C42.0981 202.854 40.8514 202.943 39.0704 202.943H37.6011C37.3785 202.943 37.1781 202.921 37 202.876H13.3574C13.1348 202.832 12.812 202.821 12.389 202.843C11.966 202.865 11.6432 202.943 11.4206 203.077C11.287 203.121 11.198 203.389 11.1534 203.878C11.1089 204.368 11.0866 204.891 11.0866 205.448C11.0866 206.004 11.0978 206.539 11.12 207.051C11.1423 207.563 11.1757 207.886 11.2202 208.019C11.3983 208.331 11.7768 208.498 12.3556 208.52C12.9344 208.542 13.4687 208.531 13.9585 208.487C14.4928 208.487 15.1829 208.487 16.0289 208.487C16.8748 208.487 18.0325 208.487 19.5018 208.487C20.9711 208.487 22.8412 208.487 25.1119 208.487C27.3827 208.487 30.1877 208.487 33.5271 208.487H38.4693C39.5824 208.487 40.5954 208.498 41.5081 208.52C42.4209 208.542 43.2557 208.731 44.0126 209.088C44.9031 209.488 45.5042 210.245 45.8159 211.358C46.0385 212.472 45.8159 213.473 45.148 214.364C44.4356 215.254 43.6676 215.722 42.8439 215.766C42.0202 215.811 41.1185 215.855 40.139 215.9C39.7828 215.9 39.1261 215.911 38.1688 215.933C37.2115 215.956 36.1429 215.978 34.963 216C33.7831 216.022 32.5475 216.034 31.2563 216.034C29.9651 216.034 28.8075 216.034 27.7834 216.034C27.8279 216.657 27.8613 217.314 27.8836 218.004C27.9058 218.694 27.917 219.306 27.917 219.84C29.1637 219.84 30.4994 219.829 31.9242 219.807C33.349 219.785 34.7738 219.774 36.1986 219.774C37.6233 219.774 38.9813 219.774 40.2726 219.774C41.5638 219.774 42.6769 219.796 43.6119 219.84ZM2.13718 239.342C2.13718 237.472 2.716 235.925 3.87365 234.701C5.03129 233.476 6.58965 232.519 8.54874 231.829C10.5078 231.139 12.812 230.66 15.4612 230.393C18.1104 230.126 20.9489 229.992 23.9765 229.992C27.0042 229.992 29.8427 230.081 32.4919 230.259C35.1411 230.437 37.4564 230.849 39.4377 231.495C41.4191 232.14 42.9886 233.087 44.1462 234.333C45.3039 235.58 45.8827 237.25 45.8827 239.342C45.8827 241.435 45.3039 243.093 44.1462 244.318C42.9886 245.542 41.4191 246.477 39.4377 247.123C37.4564 247.769 35.1411 248.192 32.4919 248.392C29.8427 248.592 27.0042 248.692 23.9765 248.692C20.9489 248.692 18.1104 248.592 15.4612 248.392C12.812 248.192 10.5078 247.769 8.54874 247.123C6.58965 246.477 5.03129 245.542 3.87365 244.318C2.716 243.093 2.13718 241.435 2.13718 239.342ZM37.0668 239.342C37.0668 238.63 36.6772 238.084 35.898 237.706C35.1188 237.328 34.0948 237.049 32.8258 236.871C31.5569 236.693 30.1432 236.593 28.5848 236.571C27.0265 236.548 25.4904 236.537 23.9765 236.537C22.4627 236.537 20.9489 236.548 19.435 236.571C17.9212 236.593 16.5632 236.693 15.361 236.871C14.1588 237.049 13.1904 237.328 12.4558 237.706C11.7211 238.084 11.3538 238.63 11.3538 239.342C11.3538 239.966 11.7211 240.467 12.4558 240.845C13.1904 241.223 14.1588 241.513 15.361 241.713C16.5632 241.914 17.9212 242.036 19.435 242.081C20.9489 242.125 22.4627 242.147 23.9765 242.147C25.4904 242.147 27.0265 242.158 28.5848 242.181C30.1432 242.203 31.5569 242.147 32.8258 242.014C34.0948 241.88 35.1188 241.613 35.898 241.212C36.6772 240.812 37.0668 240.188 37.0668 239.342ZM80.6119 202.409H76.204C76.204 202.409 76.1928 202.676 76.1706 203.21C76.1483 203.745 76.1372 204.346 76.1372 205.014C76.1372 205.682 76.1483 206.305 76.1706 206.884C76.1928 207.463 76.204 207.796 76.204 207.886C76.4266 208.108 76.8273 208.475 77.4061 208.988C77.985 209.5 78.4747 209.934 78.8755 210.29C79.3207 210.646 79.7771 211.036 80.2446 211.459C80.7121 211.882 81.1907 212.338 81.6805 212.828C81.9922 213.139 82.2816 213.44 82.5487 213.729C82.8159 214.019 83.0608 214.275 83.2834 214.497C84.1294 215.343 84.9753 216.256 85.8213 217.236C86.6673 218.215 87.2461 219.217 87.5578 220.241C87.6913 220.642 87.7136 221.087 87.6245 221.577C87.5355 222.067 87.2461 222.49 86.7563 222.846C85.9994 223.291 85.198 223.514 84.352 223.514C83.3724 223.514 82.4374 223.313 81.5469 222.913C80.6564 222.512 79.944 222.111 79.4098 221.71C78.5638 221.087 77.7846 220.43 77.0722 219.74C76.3598 219.05 75.6474 218.349 74.935 217.636C74.4453 217.147 73.8887 216.579 73.2653 215.933C72.642 215.288 72.0187 214.72 71.3953 214.23L69.5921 216.034C69.2804 216.345 68.9687 216.646 68.657 216.935C68.3454 217.225 68.056 217.525 67.7888 217.837C67.21 218.46 66.6089 219.095 65.9856 219.74C65.3622 220.386 64.6498 220.998 63.8484 221.577C62.0229 222.913 60.3087 223.58 58.7058 223.58C58.4832 223.58 58.2939 223.58 58.1381 223.58C57.9823 223.58 57.793 223.536 57.5704 223.447C56.5909 223.224 55.9452 222.824 55.6336 222.245C55.3219 221.755 55.2217 221.198 55.333 220.575C55.4443 219.952 55.6336 219.395 55.9007 218.905C56.2569 218.416 56.6576 217.937 57.1029 217.469C57.5481 217.002 57.9934 216.523 58.4386 216.034C58.8394 215.588 59.4738 214.954 60.3421 214.13C61.2103 213.306 62.0897 212.46 62.9801 211.592C63.8706 210.724 64.6943 209.934 65.4513 209.221C66.2082 208.509 66.6757 208.064 66.8538 207.886V202.409H62.5794C62.0451 202.409 61.4218 202.42 60.7094 202.442C59.997 202.465 59.2957 202.431 58.6056 202.342C57.9155 202.253 57.281 202.064 56.7022 201.774C56.1233 201.485 55.7004 201.006 55.4332 200.339C55.2106 199.849 55.0659 199.292 54.9991 198.669C54.9323 198.046 54.9657 197.467 55.0993 196.932C55.2774 196.309 55.6781 195.875 56.3014 195.63C56.9248 195.385 57.5259 195.218 58.1047 195.129C58.1937 195.129 58.5611 195.129 59.2067 195.129C59.8523 195.129 60.5536 195.129 61.3105 195.129C62.0674 195.129 62.7798 195.129 63.4477 195.129C64.1155 195.129 64.5163 195.107 64.6498 195.062H80.278C82.059 195.062 83.5617 195.174 84.7861 195.396C86.0105 195.619 87.0012 196.176 87.7581 197.066C87.9808 197.333 88.1255 197.689 88.1922 198.135C88.259 198.58 88.259 199.036 88.1922 199.504C88.1255 199.971 87.9919 200.405 87.7915 200.806C87.5912 201.207 87.3129 201.496 86.9567 201.674C86.6005 201.808 86.1775 201.953 85.6877 202.108C85.198 202.264 84.775 202.364 84.4188 202.409C83.7954 202.453 83.161 202.465 82.5154 202.442C81.8697 202.42 81.2353 202.409 80.6119 202.409ZM79.009 239.81H101.783C101.783 239.81 101.928 239.854 102.218 239.943C102.507 240.032 102.83 240.177 103.186 240.377C103.542 240.578 103.876 240.845 104.188 241.179C104.499 241.513 104.7 241.902 104.789 242.348C105.011 244.04 104.722 245.353 103.921 246.288C103.386 246.911 102.807 247.29 102.184 247.424C101.561 247.557 101.227 247.624 101.182 247.624H66.3863C64.5608 247.624 63.136 247.346 62.1119 246.789C61.0878 246.232 60.5758 245.442 60.5758 244.418V234.934C60.5758 234.667 60.5647 234.333 60.5424 233.933C60.5202 233.532 60.509 233.098 60.509 232.63C60.509 232.163 60.5202 231.729 60.5424 231.328C60.5647 230.927 60.5758 230.593 60.5758 230.326C60.6649 229.391 61.1101 228.634 61.9116 228.055C62.713 227.476 63.6258 227.187 64.6498 227.187C64.8725 227.187 65.1507 227.198 65.4847 227.22C65.8186 227.243 66.0969 227.298 66.3195 227.387C66.8983 227.565 67.3658 227.866 67.722 228.289C68.0782 228.712 68.3454 229.191 68.5235 229.725C68.7016 230.259 68.8129 230.827 68.8574 231.428C68.9019 232.029 68.9464 232.575 68.991 233.064C68.991 233.242 68.991 233.665 68.991 234.333C68.991 235.001 68.991 235.714 68.991 236.47C68.991 237.227 68.991 237.917 68.991 238.541C68.991 239.164 68.991 239.543 68.991 239.676C69.1245 239.721 69.4919 239.776 70.093 239.843C70.694 239.91 71.8183 239.943 73.4657 239.943C74.8905 239.943 76.1595 239.921 77.2726 239.877C78.3857 239.832 78.9645 239.81 79.009 239.81ZM102.919 199.671V222.245C102.919 222.245 102.897 222.401 102.852 222.712C102.807 223.024 102.718 223.38 102.585 223.781C102.451 224.182 102.251 224.593 101.984 225.016C101.717 225.439 101.36 225.784 100.915 226.052C100.292 226.408 99.6685 226.586 99.0451 226.586C98.2882 226.586 97.5536 226.341 96.8412 225.851C96.3514 225.495 95.9729 225.028 95.7058 224.449C95.3496 223.781 95.1158 223.046 95.0045 222.245C94.8932 221.443 94.8264 220.62 94.8042 219.774C94.7819 218.928 94.793 218.093 94.8375 217.269C94.8821 216.445 94.9043 215.655 94.9043 214.898C94.9043 213.963 94.9155 212.917 94.9377 211.759C94.96 210.602 94.9711 209.422 94.9711 208.219C94.9711 207.017 94.9711 205.837 94.9711 204.68C94.9711 203.522 94.9711 202.476 94.9711 201.541V200.673C94.9266 200.183 94.9155 199.66 94.9377 199.103C94.96 198.546 95.0379 198.023 95.1715 197.534C95.3496 196.866 95.7503 196.153 96.3736 195.396C96.7298 194.951 97.2307 194.628 97.8764 194.428C98.522 194.228 99.2232 194.172 99.9801 194.261C101.316 194.484 102.206 195.062 102.652 195.997C102.919 196.576 103.041 197.289 103.019 198.135C102.997 198.981 102.963 199.493 102.919 199.671ZM159.487 242.014C159.398 242.548 159.332 243.071 159.287 243.583C159.242 244.095 159.131 244.618 158.953 245.153C158.864 245.331 158.797 245.487 158.753 245.62C158.708 245.754 158.641 245.91 158.552 246.088C158.241 246.711 157.84 247.201 157.35 247.557C156.326 248.18 155.191 248.336 153.944 248.025C153.232 247.891 152.653 247.624 152.208 247.223C151.807 246.867 151.506 246.411 151.306 245.854C151.106 245.297 150.95 244.752 150.838 244.218C150.727 243.683 150.671 243.216 150.671 242.815C150.671 242.414 150.671 242.192 150.671 242.147V201.608C150.671 201.073 150.671 200.494 150.671 199.871C150.671 199.248 150.716 198.624 150.805 198.001C150.894 197.378 151.028 196.799 151.206 196.265C151.384 195.73 151.629 195.307 151.94 194.996C152.43 194.506 152.942 194.205 153.477 194.094C154.011 193.983 154.59 193.927 155.213 193.927C155.97 193.927 156.671 194.138 157.317 194.561C157.962 194.984 158.419 195.574 158.686 196.331C159.087 197.266 159.309 198.246 159.354 199.27C159.398 200.294 159.443 201.318 159.487 202.342V202.676C159.576 206.105 159.599 209.622 159.554 213.228C159.51 216.835 159.487 220.241 159.487 223.447V239.609C159.487 240.01 159.498 240.411 159.521 240.812C159.543 241.212 159.532 241.613 159.487 242.014ZM142.256 236.07C142.835 236.47 143.247 237.005 143.492 237.673C143.737 238.34 143.837 239.031 143.792 239.743C143.748 240.455 143.559 241.123 143.225 241.747C142.891 242.37 142.412 242.837 141.789 243.149C140.809 243.683 139.785 244.04 138.717 244.218C137.648 244.396 136.602 244.485 135.578 244.485H132.839C131.593 244.529 130.224 244.529 128.732 244.485C127.24 244.44 125.871 244.44 124.625 244.485H123.489C122.732 244.485 121.942 244.463 121.118 244.418C120.295 244.374 119.471 244.262 118.647 244.084C117.823 243.906 117.055 243.65 116.343 243.316C115.631 242.982 115.052 242.526 114.606 241.947C114.161 241.413 113.827 240.711 113.605 239.843C113.382 238.975 113.226 238.118 113.137 237.272C113.048 236.426 113.004 235.691 113.004 235.068C113.004 234.445 113.004 234.088 113.004 233.999V202.476C113.004 202.431 113.004 202.231 113.004 201.875C113.004 201.518 113.026 201.129 113.07 200.706C113.115 200.283 113.182 199.86 113.271 199.437C113.36 199.014 113.471 198.669 113.605 198.402C114.005 197.778 114.406 197.311 114.807 196.999C115.208 196.688 115.742 196.487 116.41 196.398C116.588 196.354 116.799 196.331 117.044 196.331C117.289 196.331 117.545 196.309 117.812 196.265C118.079 196.265 118.391 196.242 118.747 196.198H134.375H135.177C135.4 196.198 135.633 196.209 135.878 196.231C136.123 196.253 136.357 196.242 136.579 196.198H136.713C137.158 196.198 137.581 196.22 137.982 196.265C138.383 196.309 138.783 196.398 139.184 196.532C139.585 196.621 139.986 196.732 140.386 196.866C140.787 196.999 141.143 197.244 141.455 197.6C141.989 198.179 142.323 198.914 142.457 199.804C142.546 200.16 142.601 200.494 142.624 200.806C142.646 201.118 142.613 201.452 142.523 201.808C142.39 202.743 142.023 203.555 141.421 204.246C140.82 204.936 140.008 205.281 138.984 205.281H122.153V211.091V212.761V215.833C122.866 215.878 123.667 215.9 124.558 215.9C125.448 215.9 126.294 215.9 127.096 215.9C128.031 215.9 128.966 215.878 129.901 215.833H134.442C134.665 215.833 134.887 215.844 135.11 215.867C135.333 215.889 135.555 215.878 135.778 215.833H137.581C138.071 215.833 138.572 215.878 139.084 215.967C139.596 216.056 140.075 216.234 140.52 216.501C141.188 216.902 141.611 217.492 141.789 218.271C141.967 219.05 142.011 219.796 141.922 220.508C141.922 220.864 141.911 221.221 141.889 221.577C141.867 221.933 141.744 222.245 141.522 222.512C140.987 223.269 140.453 223.725 139.919 223.881C139.384 224.037 138.806 224.115 138.182 224.115H132.105C131.838 224.159 131.504 224.182 131.103 224.182H128.365C128.097 224.182 127.674 224.182 127.096 224.182C126.517 224.182 125.916 224.182 125.292 224.182C124.669 224.182 124.068 224.17 123.489 224.148C122.91 224.126 122.487 224.115 122.22 224.115C122.265 225.896 122.265 227.309 122.22 228.356C122.176 229.402 122.153 229.948 122.153 229.992V232.396C122.153 233.02 122.198 233.565 122.287 234.033C122.376 234.5 122.465 234.756 122.554 234.801C122.866 234.979 123.378 235.112 124.09 235.201C124.803 235.291 125.582 235.335 126.428 235.335H126.695C127.452 235.291 128.32 235.268 129.3 235.268C130.279 235.268 131.147 235.291 131.904 235.335H135.177C135.31 235.335 135.455 235.335 135.611 235.335C135.767 235.335 135.934 235.313 136.112 235.268H137.247C137.96 235.268 138.672 235.291 139.384 235.335C140.097 235.38 140.809 235.513 141.522 235.736C141.655 235.78 141.778 235.825 141.889 235.869C142 235.914 142.123 235.981 142.256 236.07ZM203.7 203.811C203.522 203.99 203.255 204.145 202.899 204.279C202.097 204.635 201.207 204.769 200.227 204.68C199.248 204.591 198.335 204.635 197.489 204.813C197.578 205.437 197.634 206.015 197.656 206.55C197.678 207.084 197.69 207.529 197.69 207.886V236.27C197.69 236.226 197.89 236.226 198.291 236.27C198.691 236.315 199.137 236.37 199.626 236.437C200.116 236.504 200.584 236.582 201.029 236.671C201.474 236.76 201.741 236.804 201.83 236.804C202.899 236.982 203.7 237.261 204.235 237.639C204.769 238.018 204.969 238.875 204.836 240.211C204.747 241.324 204.524 242.136 204.168 242.648C203.812 243.16 203.344 243.516 202.765 243.717C202.187 243.917 201.53 244.006 200.795 243.984C200.06 243.962 199.27 243.951 198.424 243.951C197.311 243.995 196.198 244.006 195.085 243.984C193.972 243.962 192.881 243.951 191.812 243.951C190.12 243.951 188.44 243.951 186.77 243.951C185.1 243.951 183.419 243.973 181.727 244.017C180.57 244.017 179.423 244.017 178.288 244.017C177.153 244.017 176.006 243.995 174.848 243.951C174.314 243.951 173.68 243.906 172.945 243.817C172.21 243.728 171.498 243.55 170.808 243.283C170.118 243.016 169.528 242.648 169.038 242.181C168.548 241.713 168.259 241.101 168.17 240.344C168.036 239.32 168.236 238.552 168.771 238.04C169.305 237.528 169.973 237.161 170.774 236.938C171.576 236.715 172.433 236.593 173.346 236.571C174.258 236.548 175.026 236.493 175.65 236.404C175.605 235.558 175.594 234.734 175.616 233.933C175.639 233.131 175.65 232.33 175.65 231.528V208.821C175.65 208.687 175.616 208.242 175.55 207.485C175.483 206.728 175.472 205.837 175.516 204.813C174.848 204.769 174.181 204.747 173.513 204.747C172.845 204.747 172.188 204.68 171.542 204.546C170.897 204.413 170.307 204.179 169.773 203.845C169.238 203.511 168.815 202.988 168.504 202.275C167.969 201.251 167.947 200.272 168.437 199.337C168.927 198.402 169.661 197.756 170.641 197.4C171.665 197.044 172.778 196.821 173.98 196.732C175.182 196.643 176.318 196.598 177.386 196.598C180.948 196.598 184.477 196.61 187.972 196.632C191.467 196.654 194.996 196.665 198.558 196.665C199.448 196.665 200.417 196.765 201.463 196.966C202.509 197.166 203.344 197.623 203.967 198.335C204.591 199.047 204.891 199.982 204.869 201.14C204.847 202.298 204.457 203.188 203.7 203.811ZM217.392 242.014C217.303 242.548 217.236 243.071 217.191 243.583C217.147 244.095 217.035 244.618 216.857 245.153C216.768 245.331 216.702 245.487 216.657 245.62C216.613 245.754 216.546 245.91 216.457 246.088C216.145 246.711 215.744 247.201 215.255 247.557C214.23 248.18 213.095 248.336 211.848 248.025C211.136 247.891 210.557 247.624 210.112 247.223C209.711 246.867 209.411 246.411 209.21 245.854C209.01 245.297 208.854 244.752 208.743 244.218C208.631 243.683 208.576 243.216 208.576 242.815C208.576 242.414 208.576 242.192 208.576 242.147V201.608C208.576 201.073 208.576 200.494 208.576 199.871C208.576 199.248 208.62 198.624 208.709 198.001C208.798 197.378 208.932 196.799 209.11 196.265C209.288 195.73 209.533 195.307 209.845 194.996C210.335 194.506 210.847 194.205 211.381 194.094C211.915 193.983 212.494 193.927 213.117 193.927C213.874 193.927 214.576 194.138 215.221 194.561C215.867 194.984 216.323 195.574 216.59 196.331C216.991 197.266 217.214 198.246 217.258 199.27C217.303 200.294 217.347 201.318 217.392 202.342V202.676C217.481 206.105 217.503 209.622 217.458 213.228C217.414 216.835 217.392 220.241 217.392 223.447V239.609C217.392 240.01 217.403 240.411 217.425 240.812C217.447 241.212 217.436 241.613 217.392 242.014ZM183.33 209.488C183.375 209.845 183.397 210.134 183.397 210.357C183.397 210.579 183.397 210.802 183.397 211.025V234.333C183.397 234.467 183.43 234.734 183.497 235.135C183.564 235.535 183.687 235.914 183.865 236.27H189.809V210.824C189.809 210.824 189.809 210.602 189.809 210.156C189.809 209.711 189.798 209.199 189.775 208.62C189.753 208.041 189.731 207.463 189.708 206.884C189.686 206.305 189.653 205.86 189.608 205.548C189.608 205.281 189.542 205.036 189.408 204.813H183.731C183.553 204.991 183.442 205.236 183.397 205.548C183.308 205.904 183.264 206.494 183.264 207.318C183.264 208.142 183.286 208.865 183.33 209.488ZM264.009 232.196V239.209C264.009 240.322 263.976 241.212 263.909 241.88C263.842 242.548 263.631 243.394 263.274 244.418C263.052 245.086 262.673 245.643 262.139 246.088C261.605 246.533 260.848 246.756 259.868 246.756C259.601 246.756 259.289 246.722 258.933 246.655C258.577 246.589 258.288 246.466 258.065 246.288C257.62 246.021 257.275 245.587 257.03 244.986C256.785 244.385 256.596 243.75 256.462 243.082C256.328 242.414 256.251 241.769 256.228 241.146C256.206 240.522 256.195 240.032 256.195 239.676V223.714L251.32 223.58C251.186 226.341 250.93 229.068 250.551 231.762C250.173 234.456 249.294 236.938 247.913 239.209C247.023 240.633 245.954 241.802 244.708 242.715C243.461 243.628 242.125 244.24 240.7 244.552C239.409 244.819 238.085 244.863 236.727 244.685C235.369 244.507 234.111 244.062 232.953 243.349C231.795 242.637 230.872 241.747 230.181 240.678C229.491 239.609 228.879 238.363 228.345 236.938C227.543 234.801 227.031 232.597 226.809 230.326C226.675 228.456 226.575 226.809 226.508 225.384C226.441 223.959 226.408 222.312 226.408 220.442C226.408 219.195 226.441 217.948 226.508 216.701C226.575 215.455 226.653 214.208 226.742 212.961C226.831 211.937 226.92 210.935 227.009 209.956C227.098 208.976 227.254 207.975 227.477 206.95C227.61 206.149 227.744 205.392 227.877 204.68C228.011 203.967 228.233 203.233 228.545 202.476C228.901 201.719 229.28 201.018 229.681 200.372C230.081 199.726 230.526 199.136 231.016 198.602C231.951 197.578 232.953 196.799 234.022 196.265C235.09 195.73 236.203 195.374 237.361 195.196C237.628 195.151 237.895 195.129 238.162 195.129C238.43 195.129 238.697 195.129 238.964 195.129C240.122 195.129 241.146 195.218 242.036 195.396C243.639 195.619 245.042 196.398 246.244 197.734C247.179 198.802 247.947 200.016 248.548 201.374C249.149 202.732 249.628 204.157 249.984 205.648C250.34 207.14 250.607 208.687 250.785 210.29C250.963 211.893 251.097 213.451 251.186 214.965H256.195V200.739C256.195 200.16 256.195 199.571 256.195 198.969C256.195 198.368 256.262 197.778 256.395 197.2C256.484 196.977 256.562 196.777 256.629 196.598C256.696 196.42 256.774 196.22 256.863 195.997C257.13 195.552 257.397 195.207 257.664 194.962C257.931 194.717 258.31 194.506 258.8 194.328C259.2 194.194 259.623 194.127 260.069 194.127C261.538 194.127 262.651 194.795 263.408 196.131C263.586 196.398 263.708 196.777 263.775 197.266C263.842 197.756 263.898 198.257 263.942 198.769C263.987 199.281 264.009 199.726 264.009 200.105C264.009 200.483 264.009 200.717 264.009 200.806V232.196ZM274.829 244.886C274.561 245.464 274.138 245.954 273.56 246.355C273.07 246.667 272.647 246.856 272.291 246.923C271.934 246.989 271.467 246.956 270.888 246.822C270.22 246.689 269.675 246.411 269.252 245.988C268.829 245.565 268.506 245.086 268.283 244.552C268.061 244.017 267.905 243.439 267.816 242.815C267.727 242.192 267.682 241.591 267.682 241.012V201.474C267.682 200.984 267.682 200.416 267.682 199.771C267.682 199.125 267.727 198.502 267.816 197.901C267.905 197.3 268.027 196.732 268.183 196.198C268.339 195.663 268.573 195.24 268.884 194.929C269.374 194.484 269.886 194.205 270.421 194.094C270.955 193.983 271.534 193.927 272.157 193.927C272.914 193.927 273.493 194.138 273.893 194.561C274.294 194.984 274.628 195.552 274.895 196.265C275.296 197.2 275.519 198.157 275.563 199.136C275.608 200.116 275.652 201.118 275.697 202.142V202.476C275.786 205.86 275.808 209.244 275.764 212.627C275.719 216.011 275.697 219.284 275.697 222.445V238.541C275.697 239.698 275.663 240.812 275.597 241.88C275.53 242.949 275.274 243.951 274.829 244.886ZM238.764 235.669C239.12 235.669 239.498 235.613 239.899 235.502C240.3 235.391 240.634 235.179 240.901 234.868C241.613 234.111 242.136 233.009 242.47 231.562C242.804 230.115 243.027 228.556 243.138 226.886C243.249 225.217 243.294 223.58 243.272 221.978C243.249 220.375 243.216 219.039 243.171 217.97C243.127 216.278 243.049 214.453 242.938 212.494C242.826 210.535 242.437 208.843 241.769 207.418C241.413 206.661 240.979 206.082 240.467 205.682C239.955 205.281 239.409 205.125 238.83 205.214C238.207 205.303 237.639 205.581 237.127 206.049C236.615 206.516 236.203 207.195 235.892 208.086C235.803 208.309 235.725 208.542 235.658 208.787C235.591 209.032 235.513 209.266 235.424 209.488C235.157 210.29 234.968 211.147 234.857 212.06C234.745 212.972 234.667 213.874 234.623 214.765C234.534 215.7 234.467 216.624 234.422 217.536C234.378 218.449 234.378 219.373 234.422 220.308C234.422 221.198 234.4 222.056 234.356 222.879C234.311 223.703 234.333 224.56 234.422 225.451C234.467 226.608 234.556 227.788 234.69 228.99C234.823 230.192 235.046 231.294 235.357 232.296C235.669 233.298 236.092 234.111 236.626 234.734C237.161 235.357 237.873 235.669 238.764 235.669ZM308.489 215.7L299.339 224.115C298.85 224.471 298.349 224.872 297.837 225.317C297.325 225.762 296.801 226.219 296.267 226.686C295.733 227.154 295.176 227.588 294.597 227.988C294.019 228.389 293.373 228.679 292.661 228.857C291.859 229.079 290.991 229.057 290.056 228.79C289.121 228.523 288.409 228.055 287.919 227.387C287.563 226.853 287.384 226.319 287.384 225.784C287.384 225.25 287.485 224.727 287.685 224.215C287.885 223.703 288.141 223.202 288.453 222.712C288.765 222.222 289.099 221.777 289.455 221.377C290.791 219.818 292.16 218.338 293.562 216.935C294.965 215.533 296.423 214.164 297.937 212.828C298.427 212.427 298.983 211.882 299.607 211.191C300.23 210.501 300.809 209.822 301.343 209.154C301.966 208.353 302.612 207.552 303.28 206.75C303.28 205.949 303.302 205.147 303.347 204.346C303.391 203.678 303.424 202.943 303.447 202.142C303.469 201.34 303.525 200.628 303.614 200.005C303.703 199.203 303.903 198.446 304.215 197.734C304.526 197.021 304.86 196.487 305.217 196.131C305.795 195.597 306.575 195.252 307.554 195.096C308.534 194.94 309.38 194.973 310.092 195.196C311.116 195.508 311.862 196.042 312.329 196.799C312.797 197.556 313.075 198.446 313.164 199.47C313.209 199.871 313.242 200.428 313.264 201.14C313.287 201.852 313.331 202.576 313.398 203.311C313.465 204.045 313.554 204.747 313.665 205.414C313.776 206.082 313.966 206.594 314.233 206.95C314.589 207.485 314.934 207.997 315.268 208.487C315.602 208.976 315.992 209.466 316.437 209.956C317.995 211.692 319.531 213.44 321.045 215.199C322.559 216.957 324.117 218.683 325.72 220.375C326.255 220.909 326.767 221.577 327.256 222.378C327.746 223.18 328.091 223.992 328.292 224.816C328.492 225.64 328.47 226.419 328.225 227.154C327.98 227.888 327.39 228.478 326.455 228.923C325.787 229.235 325.141 229.358 324.518 229.291C323.895 229.224 323.294 229.046 322.715 228.757C322.136 228.467 321.591 228.1 321.079 227.655C320.566 227.209 320.11 226.764 319.709 226.319L308.489 215.7ZM289.388 243.416C288.676 243.372 287.974 243.272 287.284 243.116C286.594 242.96 285.982 242.737 285.448 242.448C284.913 242.158 284.479 241.747 284.145 241.212C283.811 240.678 283.644 239.966 283.644 239.075C283.644 238.185 283.934 237.405 284.513 236.738C284.869 236.381 285.314 236.114 285.848 235.936C286.383 235.758 286.895 235.624 287.384 235.535C287.874 235.446 288.308 235.402 288.687 235.402C289.065 235.402 289.277 235.402 289.321 235.402L325.854 235.469C327.011 235.469 328.069 235.48 329.026 235.502C329.983 235.524 330.841 235.847 331.597 236.47C332.533 237.316 333 238.274 333 239.342C333 240.01 332.8 240.622 332.399 241.179C331.998 241.735 331.464 242.125 330.796 242.348C329.906 242.704 328.982 242.949 328.024 243.082C327.067 243.216 326.121 243.305 325.186 243.349C321.936 243.483 318.73 243.528 315.569 243.483C312.407 243.439 309.335 243.416 306.352 243.416C303.146 243.416 300.018 243.439 296.968 243.483C293.918 243.528 291.392 243.505 289.388 243.416Z" fill="#3669D9"/>
</g>
<g clip-path="url(#clip1_216_14)">
<path d="M243.509 0.0434391C242.252 0.209223 241.09 0.80072 240.215 1.71943L121.856 120.079C121.288 120.582 120.83 121.196 120.509 121.884C120.188 122.571 120.011 123.317 119.989 124.075C119.968 124.833 120.102 125.588 120.384 126.292C120.666 126.996 121.089 127.635 121.627 128.17C122.165 128.704 122.807 129.122 123.514 129.399C124.22 129.675 124.976 129.804 125.734 129.777C126.492 129.75 127.236 129.568 127.921 129.241C128.606 128.915 129.217 128.452 129.715 127.881L165.085 92.5119C180.661 92.3344 200.608 90.2892 217.618 82.8605C235.089 75.2304 249.693 60.7171 249.693 38.0133V29.6911C249.704 28.956 249.568 28.226 249.294 27.5438C249.02 26.8615 248.613 26.2406 248.096 25.717C247.58 25.1934 246.965 24.7777 246.287 24.4939C245.608 24.2101 244.88 24.064 244.145 24.064C243.41 24.064 242.682 24.2101 242.004 24.4939C241.325 24.7777 240.71 25.1934 240.194 25.717C239.678 26.2406 239.271 26.8615 238.997 27.5438C238.722 28.226 238.587 28.956 238.597 29.6911V38.0133C238.597 56.2062 228.276 66.0909 213.168 72.689C202.195 77.4811 188.906 79.8502 176.759 80.8378L248.075 9.52146C248.907 8.70984 249.464 7.65729 249.666 6.51241C249.868 5.36752 249.705 4.18814 249.2 3.14078C248.696 2.09341 247.875 1.23097 246.854 0.675214C245.833 0.11946 244.663 -0.101533 243.509 0.0434391ZM88.2203 37.0886C86.8512 37.2321 85.5843 37.8794 84.6658 38.9047C83.7473 39.93 83.2427 41.2602 83.2501 42.6367V160.996C83.2502 162.468 83.8348 163.879 84.8752 164.919C85.9157 165.96 87.3268 166.544 88.7982 166.544H207.158C208.629 166.544 210.04 165.96 211.081 164.919C212.121 163.879 212.706 162.468 212.706 160.996V105.515C212.716 104.78 212.58 104.05 212.306 103.368C212.032 102.686 211.625 102.065 211.109 101.541C210.593 101.018 209.978 100.602 209.299 100.318C208.621 100.034 207.893 99.8882 207.158 99.8882C206.423 99.8882 205.695 100.034 205.016 100.318C204.338 100.602 203.723 101.018 203.207 101.541C202.69 102.065 202.283 102.686 202.009 103.368C201.735 104.05 201.599 104.78 201.61 105.515V155.448H94.3463V48.1848H172.02C172.755 48.1952 173.485 48.0594 174.167 47.7853C174.849 47.5111 175.47 47.1041 175.994 46.5879C176.517 46.0716 176.933 45.4565 177.217 44.7782C177.501 44.0999 177.647 43.372 177.647 42.6367C177.647 41.9015 177.501 41.1735 177.217 40.4952C176.933 39.8169 176.517 39.2018 175.994 38.6856C175.47 38.1694 174.849 37.7624 174.167 37.4882C173.485 37.214 172.755 37.0782 172.02 37.0886H88.7982C88.6057 37.0786 88.4128 37.0786 88.2203 37.0886Z" fill="#3669D9"/>
</g>
<defs>
<clipPath id="clip0_216_14">
<rect width="333" height="54.7655" fill="white" transform="translate(0 193.927)"/>
</clipPath>
<clipPath id="clip1_216_14">
<rect width="166.5" height="166.544" fill="white" transform="translate(83.25)"/>
</clipPath>
</defs>
</svg>
