<svg width="210" height="291" viewBox="0 0 210 291" fill="none" xmlns="http://www.w3.org/2000/svg">
<g filter="url(#filter0_d_318_9)">
<rect x="4" width="202" height="283" fill="#518284"/>
</g>
<path d="M49.3 153L41.59 133.41H41.5C41.54 133.77 41.56 134.18 41.56 134.64C41.58 135.08 41.59 135.55 41.59 136.05C41.61 136.53 41.62 137.03 41.62 137.55V153H40V131.58H42.61L49.99 150.36H50.11L57.58 131.58H60.13V153H58.42V137.37C58.42 136.93 58.42 136.48 58.42 136.02C58.44 135.56 58.46 135.11 58.48 134.67C58.5 134.23 58.52 133.82 58.54 133.44H58.45L50.71 153H49.3ZM84.3121 142.26C84.3121 143.9 84.1021 145.39 83.6821 146.73C83.2821 148.07 82.6821 149.24 81.8821 150.24C81.0821 151.22 80.0721 151.98 78.8521 152.52C77.6521 153.04 76.2521 153.3 74.6521 153.3C73.0321 153.3 71.6221 153.03 70.4221 152.49C69.2221 151.95 68.2221 151.19 67.4221 150.21C66.6221 149.23 66.0221 148.07 65.6221 146.73C65.2221 145.37 65.0221 143.87 65.0221 142.23C65.0221 140.05 65.3821 138.14 66.1021 136.5C66.8421 134.86 67.9321 133.58 69.3721 132.66C70.8321 131.72 72.6321 131.25 74.7721 131.25C76.8321 131.25 78.5621 131.7 79.9621 132.6C81.3821 133.48 82.4621 134.74 83.2021 136.38C83.9421 138.02 84.3121 139.98 84.3121 142.26ZM66.8521 142.23C66.8521 144.15 67.1321 145.82 67.6921 147.24C68.2521 148.66 69.1121 149.77 70.2721 150.57C71.4321 151.37 72.9021 151.77 74.6821 151.77C76.4821 151.77 77.9521 151.38 79.0921 150.6C80.2521 149.8 81.1021 148.69 81.6421 147.27C82.2021 145.85 82.4821 144.18 82.4821 142.26C82.4821 139.28 81.8321 136.96 80.5321 135.3C79.2521 133.64 77.3321 132.81 74.7721 132.81C72.9721 132.81 71.4821 133.2 70.3021 133.98C69.1421 134.76 68.2721 135.86 67.6921 137.28C67.1321 138.7 66.8521 140.35 66.8521 142.23ZM105 153H103.17L90.7502 134.28H90.6602C90.6602 134.68 90.6702 135.09 90.6902 135.51C90.7102 135.91 90.7202 136.33 90.7202 136.77C90.7402 137.21 90.7502 137.66 90.7502 138.12C90.7702 138.56 90.7802 139.01 90.7802 139.47V153H89.1602V131.58H91.0202L103.38 150.24H103.47C103.47 149.94 103.46 149.59 103.44 149.19C103.42 148.77 103.4 148.33 103.38 147.87C103.38 147.41 103.37 146.95 103.35 146.49C103.35 146.03 103.35 145.59 103.35 145.17V131.58H105V153ZM119.626 142.11H127.396V152.04C126.336 152.46 125.226 152.78 124.066 153C122.906 153.2 121.656 153.3 120.316 153.3C118.056 153.3 116.146 152.87 114.586 152.01C113.046 151.13 111.876 149.87 111.076 148.23C110.276 146.59 109.876 144.62 109.876 142.32C109.876 140.14 110.316 138.23 111.196 136.59C112.076 134.93 113.326 133.63 114.946 132.69C116.586 131.73 118.546 131.25 120.826 131.25C122.006 131.25 123.116 131.36 124.156 131.58C125.216 131.78 126.206 132.1 127.126 132.54L126.466 134.07C125.566 133.65 124.636 133.34 123.676 133.14C122.716 132.92 121.736 132.81 120.736 132.81C118.856 132.81 117.236 133.21 115.876 134.01C114.516 134.81 113.476 135.92 112.756 137.34C112.036 138.76 111.676 140.42 111.676 142.32C111.676 144.38 112.016 146.11 112.696 147.51C113.376 148.91 114.376 149.97 115.696 150.69C117.036 151.41 118.686 151.77 120.646 151.77C121.366 151.77 122.016 151.74 122.596 151.68C123.196 151.6 123.746 151.5 124.246 151.38C124.766 151.26 125.246 151.13 125.686 150.99V143.67H119.626V142.11ZM153.598 153H138.628V151.71L151.078 133.14H139.228V131.58H153.268V132.87L140.818 151.44H153.598V153ZM169.533 153H157.773V131.58H169.533V133.14H159.513V141H168.963V142.53H159.513V151.44H169.533V153Z" fill="white"/>
<defs>
<filter id="filter0_d_318_9" x="0" y="0" width="210" height="291" filterUnits="userSpaceOnUse" color-interpolation-filters="sRGB">
<feFlood flood-opacity="0" result="BackgroundImageFix"/>
<feColorMatrix in="SourceAlpha" type="matrix" values="0 0 0 0 0 0 0 0 0 0 0 0 0 0 0 0 0 0 127 0" result="hardAlpha"/>
<feOffset dy="4"/>
<feGaussianBlur stdDeviation="2"/>
<feComposite in2="hardAlpha" operator="out"/>
<feColorMatrix type="matrix" values="0 0 0 0 0 0 0 0 0 0 0 0 0 0 0 0 0 0 0.25 0"/>
<feBlend mode="normal" in2="BackgroundImageFix" result="effect1_dropShadow_318_9"/>
<feBlend mode="normal" in="SourceGraphic" in2="effect1_dropShadow_318_9" result="shape"/>
</filter>
</defs>
</svg>
